<svg width="27" height="30" viewBox="0 0 27 30" fill="none" xmlns="http://www.w3.org/2000/svg">
<path d="M23.3716 0C21.6557 0 20.2646 1.39102 20.2646 3.10693V12.3773H25.5996C26.085 12.3773 26.4785 11.9838 26.4785 11.4984V3.10693C26.4785 1.39102 25.0875 0 23.3716 0V0Z" fill="#FF82AC"/>
<path d="M8.86588 22.0898C8.86588 16.7805 13.1849 12.4076 18.5653 12.4223V3.48551C18.5653 2.14857 19.0686 0.927129 19.8952 0H4.39336C1.97109 0 0 1.97109 0 4.39336V29.1053C0 29.8959 0.967207 30.2844 1.51406 29.7129L2.63848 28.5387L3.82617 29.727C4.16895 30.0697 4.72559 30.0697 5.06894 29.727L6.19453 28.602L7.33125 29.7293C7.67402 30.0691 8.22656 30.0691 8.56934 29.7293L9.72422 28.5844L10.8797 29.7293C11.2219 30.0691 11.7738 30.0691 12.1166 29.7299L12.3404 29.5084C10.1612 27.6864 8.86588 24.9923 8.86588 22.0898ZM7.11012 7.08984H8.84473V5.35523C8.84473 4.86984 9.23824 4.47633 9.72363 4.47633C10.209 4.47633 10.6025 4.86984 10.6025 5.35523V7.08984H12.3371C12.8225 7.08984 13.2161 7.48336 13.2161 7.96875C13.2161 8.45414 12.8225 8.84766 12.3371 8.84766H10.6025V10.5823C10.6025 11.0677 10.209 11.4612 9.72363 11.4612C9.23824 11.4612 8.84473 11.0677 8.84473 10.5823V8.84766H7.11012C6.62473 8.84766 6.23121 8.45414 6.23121 7.96875C6.23121 7.48336 6.62473 7.08984 7.11012 7.08984ZM4.45014 13.2451H10.3682C10.8536 13.2451 11.2471 13.6386 11.2471 14.124C11.2471 14.6094 10.8536 15.0029 10.3682 15.0029H4.45014C3.96475 15.0029 3.57123 14.6094 3.57123 14.124C3.57123 13.6386 3.96475 13.2451 4.45014 13.2451ZM7.38275 22.0283H4.44428C3.95889 22.0283 3.56537 21.6348 3.56537 21.1494C3.56537 20.664 3.95889 20.2705 4.44428 20.2705H7.38275C7.86814 20.2705 8.26166 20.664 8.26166 21.1494C8.26166 21.6348 7.86814 22.0283 7.38275 22.0283ZM7.96875 18.5186H4.44715C3.96176 18.5186 3.56824 18.125 3.56824 17.6396C3.56824 17.1543 3.96176 16.7607 4.44715 16.7607H7.96875C8.45414 16.7607 8.84766 17.1543 8.84766 17.6396C8.84766 18.125 8.45414 18.5186 7.96875 18.5186Z" fill="#FF82AC"/>
<path d="M18.5339 14.1797C14.1723 14.1797 10.6238 17.7282 10.6238 22.0898C10.6238 26.4515 14.1723 30 18.5339 30C22.8956 30 26.4441 26.4515 26.4441 22.0898C26.4441 17.7282 22.8956 14.1797 18.5339 14.1797ZM19.4156 25.4747V25.5583C19.4156 26.0437 19.0221 26.4372 18.5367 26.4372C18.0513 26.4372 17.6578 26.0437 17.6578 25.5583V25.5434C17.2641 25.4496 16.8988 25.2945 16.6092 25.105C16.203 24.8392 16.0891 24.2946 16.3548 23.8883C16.6206 23.482 17.1653 23.3682 17.5715 23.634C17.9312 23.8693 18.5242 23.9587 18.8157 23.8216C19.0045 23.7327 19.1506 23.543 19.171 23.3603C19.2145 22.9712 18.6048 22.7541 18.2407 22.6103C17.6898 22.3927 17.0042 22.1219 16.6061 21.4033C16.0388 20.3791 16.5357 19.0287 17.6578 18.5669V18.5227C17.6578 18.0373 18.0513 17.6437 18.5367 17.6437C19.0173 17.6437 19.4072 18.0296 19.4149 18.5084C19.7312 18.6073 20.0227 18.7655 20.256 18.9807C20.6128 19.3098 20.6353 19.8658 20.3062 20.2226C19.977 20.5795 19.421 20.6019 19.0642 20.2728C18.9197 20.1394 18.4741 20.0856 18.2804 20.2156C18.1502 20.3031 18.0992 20.4709 18.1438 20.5514C18.3294 20.8865 19.3015 21.0013 20.0371 21.5746C21.5399 22.7457 21.017 24.8604 19.4156 25.4747Z" fill="#FF82AC"/>
</svg>
