<svg width="16" height="13" viewBox="0 0 16 13" fill="none" xmlns="http://www.w3.org/2000/svg">
<path d="M11.1305 12.4218H1.86953C1.37386 12.4213 0.898637 12.2241 0.548144 11.8736C0.197651 11.5231 0.000517025 11.0479 0 10.5522V5.02529C0.000517025 4.52962 0.197651 4.0544 0.548144 3.70391C0.898637 3.35341 1.37386 3.15628 1.86953 3.15576H11.1305C11.6261 3.15628 12.1014 3.35341 12.4519 3.70391C12.8023 4.0544 12.9995 4.52962 13 5.02529V10.5522C12.9995 11.0479 12.8023 11.5231 12.4519 11.8736C12.1014 12.2241 11.6261 12.4213 11.1305 12.4218ZM1.86953 4.32764C1.68456 4.32784 1.50723 4.40141 1.37644 4.5322C1.24565 4.663 1.17208 4.84033 1.17188 5.02529V10.5522C1.17208 10.7372 1.24565 10.9145 1.37644 11.0453C1.50723 11.1761 1.68456 11.2497 1.86953 11.2499H11.1305C11.3154 11.2497 11.4928 11.1761 11.6236 11.0453C11.7543 10.9145 11.8279 10.7372 11.8281 10.5522V5.02529C11.8279 4.84033 11.7543 4.663 11.6236 4.5322C11.4928 4.40141 11.3154 4.32784 11.1305 4.32764H1.86953Z" fill="#FFBB38"/>
<path d="M13.7562 9.26641H12.414C12.2586 9.26641 12.1096 9.20467 11.9997 9.09479C11.8898 8.9849 11.8281 8.83587 11.8281 8.68047C11.8281 8.52507 11.8898 8.37603 11.9997 8.26615C12.1096 8.15626 12.2586 8.09453 12.414 8.09453H13.7562C13.9411 8.09412 14.1182 8.02046 14.2488 7.88969C14.3794 7.75892 14.4529 7.58171 14.4531 7.39687V1.86992C14.453 1.68502 14.3796 1.50771 14.249 1.37686C14.1183 1.246 13.9411 1.17229 13.7562 1.17188H4.49529C4.31033 1.17208 4.133 1.24565 4.00221 1.37644C3.87141 1.50723 3.79784 1.68456 3.79764 1.86953V3.74141C3.79764 3.89681 3.73591 4.04584 3.62602 4.15573C3.51614 4.26561 3.3671 4.32734 3.2117 4.32734C3.0563 4.32734 2.90726 4.26561 2.79738 4.15573C2.6875 4.04584 2.62576 3.89681 2.62576 3.74141V1.86992C2.62618 1.37418 2.82326 0.89886 3.17377 0.548282C3.52427 0.197705 3.99955 0.000517193 4.49529 0H13.7562C14.2518 0.000723942 14.7269 0.198003 15.0773 0.548558C15.4276 0.899113 15.6246 1.37432 15.625 1.86992V7.39687C15.6245 7.89241 15.4274 8.36752 15.0771 8.71799C14.7268 9.06846 14.2518 9.26568 13.7562 9.26641Z" fill="#FFBB38"/>
<path d="M12.4141 8.23408H0.585938C0.430537 8.23408 0.281502 8.17235 0.171617 8.06247C0.0617325 7.95258 0 7.80355 0 7.64815V5.68018C0 5.52478 0.0617325 5.37574 0.171617 5.26586C0.281502 5.15597 0.430537 5.09424 0.585938 5.09424H12.4141C12.5695 5.09424 12.7185 5.15597 12.8284 5.26586C12.9383 5.37574 13 5.52478 13 5.68018V7.64815C13 7.80355 12.9383 7.95258 12.8284 8.06247C12.7185 8.17235 12.5695 8.23408 12.4141 8.23408ZM1.17188 7.06221H11.8281V6.26611H1.17188V7.06221Z" fill="#FFBB38"/>
</svg>
