<svg width="20" height="20" viewBox="0 0 20 20" fill="none" xmlns="http://www.w3.org/2000/svg">
<path d="M11.2951 12.2698C14.6511 12.2698 17.3814 9.51765 17.3814 6.1349C17.3814 2.75215 14.6511 0 11.2951 0C7.93915 0 5.20886 2.75211 5.20886 6.13486C5.20886 9.51761 7.93915 12.2698 11.2951 12.2698ZM9.33941 8.04927C9.51645 7.77865 9.8794 7.70268 10.15 7.8798C10.5444 8.13773 10.6931 8.16151 11.2135 8.15788C11.7214 8.15452 12.0161 7.77595 12.075 7.42562C12.1036 7.25521 12.1146 6.83909 11.5989 6.65678C10.994 6.44292 10.3749 6.1985 9.94421 5.86069C9.51353 5.52288 9.3163 4.93971 9.42955 4.33886C9.55233 3.68749 10.0067 3.16897 10.6154 2.98564C10.6209 2.984 10.6263 2.98268 10.6318 2.98104V2.75906C10.6318 2.43566 10.894 2.17347 11.2174 2.17347C11.5408 2.17347 11.803 2.43566 11.803 2.75906V2.94414C12.2007 3.03909 12.4785 3.22105 12.5913 3.30534C12.8503 3.49901 12.9033 3.86594 12.7097 4.125C12.516 4.38407 12.1491 4.43708 11.89 4.24337C11.77 4.15366 11.4384 3.9608 10.9532 4.10701C10.6697 4.19242 10.5962 4.4721 10.5804 4.55576C10.5495 4.72016 10.5842 4.87425 10.667 4.93913C10.9655 5.17329 11.5029 5.38062 11.9892 5.55251C12.8859 5.86947 13.3845 6.70023 13.2299 7.61976C13.1541 8.07094 12.9271 8.48951 12.5908 8.79851C12.3617 9.00901 12.0951 9.15908 11.803 9.24477V9.51066C11.803 9.83406 11.5408 10.0963 11.2174 10.0963C10.894 10.0963 10.6318 9.83406 10.6318 9.51066V9.30317C10.2532 9.25726 9.93531 9.13885 9.50884 8.85988C9.23826 8.68284 9.16237 8.31989 9.33941 8.04927Z" fill="#B1B1B1"/>
<path d="M1.92081 14.2373H0.585589C0.262188 14.2373 0 14.4995 0 14.8229V19.4135C0 19.7369 0.262188 19.9991 0.585589 19.9991H1.92085V14.2373H1.92081Z" fill="#B1B1B1"/>
<path d="M19.2307 14.1965C18.1332 13.0989 16.3473 13.0989 15.2498 14.1965L13.4956 15.9507L12.7766 16.6697C12.486 16.9602 12.0919 17.1235 11.6809 17.1235H8.18483C7.86908 17.1235 7.59736 16.8808 7.58249 16.5654C7.56664 16.2287 7.83496 15.9507 8.16823 15.9507H11.7218C12.4363 15.9507 13.056 15.442 13.1788 14.7382C13.2071 14.5765 13.2218 14.4104 13.2218 14.2408C13.2218 13.9168 12.9593 13.6539 12.6354 13.6539H10.6882C10.0519 13.6539 9.4408 13.3652 8.7938 13.0596C8.11518 12.739 7.41349 12.4075 6.593 12.3529C5.87538 12.3051 5.15612 12.3837 4.45509 12.5861C3.70448 12.8029 3.16492 13.4697 3.09949 14.2397C3.09699 14.2395 3.09446 14.2394 3.09192 14.2393V19.9972L13.1807 20C13.8744 20 14.5266 19.7298 15.0171 19.2393L19.2306 15.0258C19.4598 14.7969 19.4598 14.4255 19.2307 14.1965Z" fill="#B1B1B1"/>
</svg>
