<svg width="25" height="25" viewBox="0 0 25 25" fill="none" xmlns="http://www.w3.org/2000/svg">
<path d="M4.2085 21.5226C4.613 21.5226 4.94092 21.1947 4.94092 20.7902C4.94092 20.3857 4.613 20.0577 4.2085 20.0577C3.80399 20.0577 3.47607 20.3857 3.47607 20.7902C3.47607 21.1947 3.80399 21.5226 4.2085 21.5226Z" fill="#396AFF"/>
<path d="M19.8332 12.0366C21.1266 11.8463 22.3002 11.2558 23.227 10.329C24.1094 9.44667 24.6902 8.3328 24.9065 7.10785C25.1178 5.91136 24.9692 4.69442 24.4768 3.58856C24.2679 3.11951 23.6525 3.00574 23.2898 3.36859L20.2894 6.36888C20.1656 6.49271 19.9641 6.49271 19.8402 6.36888L18.6304 5.15916C18.5068 5.03553 18.5068 4.83436 18.6304 4.71073L21.6312 1.71004C21.9943 1.34695 21.8799 0.731817 21.4112 0.523126C20.3053 0.0306451 19.0883 -0.117988 17.8918 0.0933405C16.6668 0.309649 15.5529 0.890411 14.6705 1.77278C13.7437 2.69959 13.1532 3.87313 12.9629 5.16649C12.8058 6.23387 12.9311 7.30179 13.325 8.28841L11.1279 10.0932L6.22151 5.18695L7.0847 4.32381C7.39402 4.01453 7.36483 3.50369 7.02156 3.23182L3.70067 0.601544C3.40921 0.370733 2.99095 0.394854 2.72801 0.657794L0.656427 2.72928C0.393487 2.99217 0.369269 3.41038 0.600177 3.70189L3.23055 7.02264C3.50242 7.36585 4.01292 7.39544 4.32259 7.08578L5.18572 6.22264L9.99061 11.0273L0.971515 18.4358C-0.229218 19.3855 -0.332831 21.1723 0.749444 22.2545L2.74456 24.2496C3.82669 25.3316 5.61341 25.2284 6.56341 24.0275L13.9721 15.0087L14.7164 15.753L13.6459 16.8234C13.3707 17.0985 13.3588 17.5407 13.6185 17.8303L19.1998 24.0527C20.2975 25.2709 22.191 25.3216 23.3517 24.1609L24.1602 23.3523C25.3234 22.1893 25.2682 20.2821 24.0389 19.1883C24.0384 19.1879 24.0379 19.1874 24.0374 19.187L17.7863 13.6558C17.4964 13.3993 17.0569 13.4126 16.783 13.6864L15.7521 14.7172L14.9063 13.8715L16.7112 11.6745C17.6978 12.0683 18.7658 12.1936 19.8332 12.0366ZM3.86824 5.46859L2.15345 3.30374L3.30247 2.15477L5.46741 3.86947L3.86824 5.46859ZM17.3316 15.2093L23.0658 20.2831C23.3561 20.5416 23.5223 20.898 23.5337 21.2867C23.545 21.6757 23.3997 22.0414 23.1245 22.3166L22.316 23.1251C22.042 23.3991 21.6779 23.5447 21.2909 23.5343C20.9037 23.5242 20.5476 23.3602 20.2893 23.0734L15.1722 17.3686L17.3316 15.2093ZM15.9367 10.3096L13.3513 13.4568C13.351 13.4572 13.3506 13.4577 13.3503 13.458L5.42689 23.1034C5.42352 23.1075 5.42015 23.1117 5.41683 23.1159C5.01082 23.6329 4.24627 23.6797 3.78035 23.2138L1.78524 21.2187C1.32039 20.754 1.36502 19.9893 1.88323 19.5824C1.88743 19.5791 1.89158 19.5757 1.89573 19.5723L11.5415 11.6491C11.5418 11.6488 11.542 11.6486 11.5423 11.6484L14.6899 9.06288C14.9571 8.84339 15.0344 8.46688 14.8752 8.1599C13.9521 6.37923 14.2861 4.22869 15.7063 2.80853C16.5809 1.93397 17.7649 1.46922 18.9622 1.46922C19.2202 1.46922 19.4788 1.4908 19.7351 1.5345L17.5946 3.67493C16.8999 4.36966 16.8999 5.50008 17.5946 6.19486L18.8044 7.40457C19.4993 8.0995 20.6302 8.0996 21.3252 7.40457L23.4653 5.26458C23.7118 6.70999 23.2542 8.23026 22.1912 9.29325C20.771 10.7134 18.6204 11.0473 16.8397 10.1243C16.5327 9.96512 16.1562 10.0424 15.9367 10.3096Z" fill="#396AFF"/>
</svg>
