<svg width="18" height="18" viewBox="0 0 18 18" fill="none" xmlns="http://www.w3.org/2000/svg">
<path d="M8.78784 6.91569C9.14218 6.91569 9.43157 7.20434 9.43157 7.55869C9.43157 7.88203 9.69438 8.1441 10.0177 8.1441C10.3403 8.1441 10.6031 7.88203 10.6031 7.55869C10.6031 6.76436 10.0856 6.09405 9.37325 5.84896V5.51676C9.37325 5.19415 9.11118 4.93061 8.78784 4.93061C8.46375 4.93061 8.20168 5.19415 8.20168 5.51676V5.84896C7.4893 6.09405 6.97328 6.76436 6.97328 7.55869C6.97328 8.56046 7.7868 9.37398 8.78784 9.37398C9.14218 9.37398 9.43157 9.66337 9.43157 10.0177C9.43157 10.3728 9.14218 10.6614 8.78784 10.6614C8.43349 10.6614 8.14484 10.3728 8.14484 10.0177C8.14484 9.69437 7.88203 9.43157 7.55869 9.43157C7.23461 9.43157 6.97328 9.69437 6.97328 10.0177C6.97328 10.812 7.4893 11.4816 8.20168 11.7267V12.0589C8.20168 12.383 8.46375 12.6458 8.78784 12.6458C9.11118 12.6458 9.37325 12.383 9.37325 12.0589V11.7267C10.0856 11.4816 10.6031 10.812 10.6031 10.0177C10.6031 9.01668 9.78887 8.20242 8.78784 8.20242C8.43349 8.20242 8.14484 7.91377 8.14484 7.55869C8.14484 7.20434 8.43349 6.91569 8.78784 6.91569ZM13.6963 12.0412C13.9835 12.1925 14.3371 12.0825 14.4877 11.7976C14.9749 10.877 15.2318 9.83611 15.2318 8.78783C15.2318 5.23549 12.3402 2.3446 8.78784 2.3446C5.23476 2.3446 2.34387 5.23549 2.34387 8.78783C2.34387 12.3409 5.23476 15.2318 8.78784 15.2318C9.82061 15.2318 10.8467 14.9823 11.7555 14.5091C12.0427 14.3607 12.1541 14.0056 12.005 13.7192C11.8559 13.4335 11.5023 13.3198 11.2144 13.4697C10.4621 13.8624 9.64491 14.061 8.78784 14.061C5.8807 14.061 3.51469 11.6957 3.51469 8.78783C3.51469 5.88144 5.8807 3.51543 8.78784 3.51543C11.695 3.51543 14.061 5.88144 14.061 8.78783C14.061 9.64639 13.8498 10.4976 13.4527 11.2491C13.3006 11.5355 13.4099 11.8899 13.6963 12.0412ZM8.78784 0C7.09066 0 5.44294 0.485752 4.02333 1.40337C3.75092 1.57906 3.67341 1.94153 3.84911 2.2132C4.02554 2.48487 4.38654 2.56164 4.65968 2.38742C5.88809 1.59309 7.31729 1.1723 8.78784 1.1723C12.9876 1.1723 16.4034 4.58881 16.4034 8.78783C16.4034 12.9876 12.9876 16.4041 8.78784 16.4041C4.58807 16.4041 1.17156 12.9876 1.17156 8.78783C1.17156 7.33132 1.58423 5.91466 2.36601 4.6929C2.54023 4.41975 2.46051 4.05729 2.18736 3.88306C1.91496 3.70884 1.55249 3.78857 1.379 4.06098C0.476893 5.47173 0 7.10763 0 8.78783C0 13.6343 3.94139 17.5757 8.78784 17.5757C13.6335 17.5757 17.5757 13.6343 17.5757 8.78783C17.5757 3.94286 13.6335 0 8.78784 0Z" fill="#16DBCC"/>
</svg>
