<svg width="15" height="17" viewBox="0 0 15 17" fill="none" xmlns="http://www.w3.org/2000/svg">
<path d="M12.9445 4.11255C12.9346 3.0195 12.4938 1.97448 11.718 1.20447C10.9421 0.434461 9.8938 0.00165342 8.8007 5.18057e-05H2.76945C2.61965 -0.0018763 2.47413 0.0500722 2.35942 0.146435C2.2447 0.242797 2.16841 0.377161 2.14445 0.525052L0.00695433 13.9313C-0.00640077 14.0201 -0.000473796 14.1107 0.0243318 14.197C0.0491373 14.2832 0.0922392 14.3632 0.150704 14.4313C0.208792 14.501 0.281374 14.5573 0.363403 14.5962C0.445433 14.635 0.534941 14.6555 0.625704 14.6563H3.20695L3.06945 15.5251C3.05485 15.6151 3.06014 15.7072 3.08494 15.795C3.10974 15.8828 3.15345 15.9641 3.21301 16.0332C3.27257 16.1023 3.34654 16.1575 3.42971 16.195C3.51288 16.2324 3.60324 16.2512 3.69445 16.2501H6.6007C6.7496 16.2522 6.89437 16.2011 7.00896 16.106C7.12354 16.0109 7.2004 15.878 7.2257 15.7313L7.8507 11.9126H9.81945C11.0517 11.9076 12.2319 11.415 13.102 10.5425C13.9722 9.67004 14.4616 8.48855 14.4632 7.2563V7.0813C14.4626 6.50167 14.3246 5.93043 14.0606 5.4144C13.7966 4.89837 13.4141 4.45224 12.9445 4.11255ZM3.3007 1.25005H8.8007C9.45642 1.25206 10.0921 1.47624 10.604 1.88601C11.116 2.29577 11.4739 2.86694 11.6195 3.5063C11.3491 3.44289 11.0722 3.41142 10.7945 3.41255H5.58195C5.43215 3.41062 5.28663 3.46257 5.17191 3.55893C5.0572 3.6553 4.98091 3.78966 4.95695 3.93755L4.5882 6.25005C4.56168 6.41581 4.60209 6.58532 4.70055 6.72128C4.79901 6.85725 4.94744 6.94853 5.1132 6.97505C5.27896 7.00157 5.44847 6.96116 5.58443 6.8627C5.7204 6.76425 5.81168 6.61581 5.8382 6.45005L6.1257 4.65005H10.807C11.1066 4.65162 11.4033 4.70885 11.682 4.8188C11.5631 5.79721 11.0911 6.69854 10.3545 7.3534C9.61793 8.00827 8.66754 8.37158 7.68195 8.37505H4.78195C4.63306 8.37289 4.48828 8.42395 4.3737 8.51906C4.25912 8.61416 4.18225 8.74706 4.15695 8.8938L3.39445 13.4063H1.35695L3.3007 1.25005ZM13.2132 7.2563C13.2116 8.15703 12.8539 9.02058 12.2181 9.65866C11.5824 10.2967 10.7202 10.6576 9.81945 10.6626H7.31945C7.17056 10.6604 7.02578 10.7115 6.9112 10.8066C6.79662 10.9017 6.71975 11.0346 6.69445 11.1813L6.06945 15.0001H4.41945L4.55695 14.1313L5.30695 9.63755H7.66945C8.83624 9.63412 9.96913 9.24485 10.8916 8.53039C11.8141 7.81592 12.4743 6.8164 12.7695 5.68755C13.0595 6.09427 13.2147 6.58173 13.2132 7.0813V7.2563Z" fill="#396AFF"/>
</svg>
